<svg version="1.2" xmlns="http://www.w3.org/2000/svg" viewBox="0 0 817 663" width="817" height="663">
	<title>timeline-svg</title>
	<style>
		.s0 { fill: #3f3d56 } 
		.s1 { fill: #2f2e41 } 
		.s2 { fill: #fbbebe } 
		.s3 { fill: #00abb3 } 
		.s4 { fill: #002b5b } 
		.s5 { fill: #eaeaea } 
		.s6 { fill: #ffffff } 
	</style>
	<path id="Layer" class="s0" d="m550 608.1q-14.2 0-28.5-0.4-14.2-0.5-28.4-1.4-14.2-0.9-28.4-2.3-14.2-1.4-28.3-3.3-1.9-0.3-3.7-0.6c-9.3-1.3-18.5-2.8-27.5-4.4-40.5-7.4-78.6-18.2-113.4-32.2-115.8-46.3-188.6-36.4-229.2-20-44.1 17.8-61 46.9-61.2 47.2l-1.4-0.9c0.2-0.3 17.3-29.8 61.8-47.8 26.1-10.5 56.4-15.1 90-13.7 41.9 1.8 89.3 13.2 140.6 33.7 34.7 13.9 72.7 24.7 113.1 32 9 1.7 18.2 3.2 27.4 4.5q1.9 0.3 3.7 0.5c102.1 14 200.6 5.6 265.2-4 53.3-7.9 87.6-17.1 87.9-17.2l0.5 1.6c-0.4 0.1-34.8 9.3-88.1 17.3q-18.9 2.8-37.9 4.9-18.9 2.1-38 3.5-19 1.5-38 2.2-19.1 0.8-38.2 0.8z"/>
	<path id="Layer" class="s0" d="m550.1 130.3c-29.3 0-57.9-1.4-85.5-4.2-63.3-6.3-121.5-19.9-172.8-40.4-115.8-46.3-188.6-36.5-229.2-20-44.1 17.7-61 46.8-61.2 47.1l-1.4-0.8c0.2-0.3 17.3-29.8 61.8-47.8 26.1-10.6 56.4-15.2 90-13.8 41.9 1.9 89.3 13.2 140.6 33.7 116 46.4 245 48.2 332.8 41.6 95.2-7.2 163.8-25.6 164.5-25.8l0.5 1.6c-0.7 0.2-69.5 18.7-164.8 25.9-25.6 1.9-50.7 2.9-75.3 2.9z"/>
	<path id="Layer" class="s1" d="m623.9 22.9q2.9 3.5 5.3 7.4 2.4 3.9 4.2 8.1 1.7 4.2 2.9 8.6 1.1 4.5 1.5 9c1.7 14.6 6.4 38 20.2 50.2 21.1 18.7 28.1 32.8 28.1 32.8l-7 7c0-14-9.4-16.4-9.4-16.4l2.4 16.4c-63.2 53.8-203.4 4.7-203.4 4.7l4.6-42.1c-11.7 4.7-16.3 37.4-16.3 37.4l-18.7-4.7c0 0 32.7-51.4 53.7-98.2 21.1-46.7 53.8-35.1 53.8-35.1 38.6-18.5 64.1-1.3 78.1 14.9z"/>
	<path id="Layer" class="s2" d="m744.5 272.6c0 0 61.6 52.6 70.6 83.4 9.1 30.8-34.4 34.4-34.4 34.4l-94.2 9.1c0 0-1.8 43.4-18.1 48.9-16.3 5.4-3.3-71.9-3.3-71.9l92.1-26-41.7-43.4z"/>
	<path id="Layer" class="s2" d="m496.3 332.4l-5.4 105.1-58 154c0 0 1.8 72.4-29 70.6-30.8-1.8 5.4-76.1 5.4-76.1l39.9-163 7.2-96z"/>
	<path id="Layer" class="s2" d="m557.9 158.5c-33.1 0-59.8-26.7-59.8-59.8 0-33 26.7-59.8 59.8-59.8 33 0 59.8 26.8 59.8 59.8 0 33.1-26.8 59.8-59.8 59.8z"/>
	<path id="Layer" class="s2" d="m595.9 127.7c-16.3 52.6 41.7 72.5 41.7 72.5-32.6 59.8-154 45.3-119.6 25.3 34.4-19.9 12.7-97.8 12.7-97.8z"/>
	<path id="Layer" class="s3" d="m501.7 343.3l-48.9-5.4c0 0 3.6-65.3 3.6-81.6 0-16.3 21.8-25.3 21.8-25.3l10.8 3.6z"/>
	<path id="Layer" class="s4" d="m701.9 595.8c-66.8 9.9-164.3 17.9-265.4 4q0-1.5 0-2.9 0-8.5 0.7-16.8c5.1-68 40.2-124.7 53.7-144.4q1.1-1.5 1.9-2.7c2.2-3 3.5-4.7 3.5-4.7 0 0 105.1-1.7 159.4 20.1q1 0.4 1.9 0.9 1 0.5 1.8 1.1 0.9 0.5 1.8 1.2 0.8 0.7 1.6 1.4c20.2 18.7 32.1 79.4 39.1 142.8z"/>
	<path id="Layer" class="s3" d="m662.9 209.2c0 0 23.6-12.6 47.1 14.5l47.2 54.4-36.3 39.8-68.8-41.6z"/>
	<path id="Layer" class="s1" d="m491.1 53.8l32.4-21.6 41-4.3 43.1 10.8c0 0 21.6 53.9-2.1 51.8-23.8-2.2-62.6-45.3-62.6-45.3-11.3 21-28.5 38.6-49.6 53.9z"/>
	<path id="Layer" class="s3" d="m679.3 207.4l10.8 90.6c0 0-3.6 14.5-18.1 50.7-14.5 36.3-9.1 106.9-9.1 106.9l-170.2-21.7c0 0 3.6-20 10.8-25.4 7.3-5.4 0 0-5.4-9-5.4-9.1 3.6-5.5 7.2-7.3 3.7-1.8 7.3-12.7-7.2-32.6-14.5-19.9-19.9-128.6-19.9-128.6l5.7-1.6 43.2-11.9c76.1 19.1 101.4-20.9 101.4-20.9z"/>
	<path id="Layer" class="s5" d="m41.5 161.1h233.1v291.4h-233.1z"/>
	<path id="Layer" class="s6" d="m57.8 185.6h49.9v33.3h-49.9z"/>
	<path id="Layer" class="s6" d="m58.2 250.6h193.1v11.6h-193.1z"/>
	<path id="Layer" class="s6" d="m58.2 281.4h193.1v11.6h-193.1z"/>
	<path id="Layer" class="s6" d="m58.2 312.2h193.1v11.6h-193.1z"/>
	<path id="Layer" class="s6" d="m58.2 343h193.1v11.6h-193.1z"/>
	<path id="Layer" class="s6" d="m58.2 373.8h193.1v11.7h-193.1z"/>
	<path id="Layer" class="s3" d="m320.4 452.1c0 22.7-16.8 41.9-39.3 45.1-22.5 3.2-43.9-10.7-50.2-32.5-6.3-21.8 4.4-45 25.1-54.3 20.7-9.4 45.2-2 57.3 17.2q1.8 2.7 3.1 5.7 1.3 2.9 2.2 6 0.9 3.1 1.4 6.3 0.4 3.2 0.4 6.5z"/>
	<path id="Layer" class="s6" d="m313.3 427.6l-45 45.1c-2.9-4.4-18.7-24.8-18.7-24.8q0.8-0.8 1.6-1.5 0.8-0.8 1.6-1.5 0.8-0.7 1.6-1.4 0.8-0.7 1.7-1.3l13.1 17.4 38.9-38.8q0.7 0.8 1.4 1.6 0.7 0.8 1.4 1.7 0.6 0.8 1.2 1.7 0.7 0.9 1.2 1.8z"/>
</svg>